<?xml version="1.0" standalone="no"?>
<!DOCTYPE svg PUBLIC "-//W3C//DTD SVG 20010904//EN"
 "http://www.w3.org/TR/2001/REC-SVG-20010904/DTD/svg10.dtd">
<svg version="1.0" xmlns="http://www.w3.org/2000/svg"
 width="1024.000000pt" height="1024.000000pt" viewBox="0 0 1024.000000 1024.000000"
 preserveAspectRatio="xMidYMid meet">
<metadata>
Created by potrace 1.14, written by Peter Selinger 2001-2017
</metadata>
<g transform="translate(0.000000,1024.000000) scale(0.100000,-0.100000)"
fill="#000000" stroke="none">
<path d="M5913 8732 c-50 -11 -73 -21 -76 -32 -5 -20 -179 -122 -198 -117 -8
2 -11 2 -6 0 4 -3 5 -9 2 -13 -8 -14 -34 0 -29 14 5 13 1 14 -46 19 -14 1 -31
6 -38 10 -7 5 -39 -5 -80 -25 -133 -67 -369 -197 -487 -268 -269 -163 -386
-236 -495 -308 -63 -42 -148 -93 -188 -114 -41 -20 -80 -42 -88 -49 -8 -6 -14
-8 -14 -4 0 4 -7 2 -15 -5 -8 -7 -15 -9 -15 -5 0 4 -6 3 -13 -3 -8 -7 -18 -7
-27 -2 -22 14 -30 12 -30 -6 0 -9 5 -12 11 -8 7 4 10 1 7 -6 -2 -7 -14 -17
-26 -21 -18 -7 -22 -5 -22 11 0 13 -7 20 -20 20 -11 0 -20 -4 -20 -10 0 -15
-30 -12 -30 3 0 6 -5 4 -11 -5 -12 -22 -29 -23 -29 -3 0 8 -7 15 -15 15 -9 0
-15 9 -15 25 0 16 -6 25 -15 25 -8 0 -15 -7 -15 -15 0 -8 -7 -15 -16 -15 -10
0 -14 -5 -10 -16 7 -18 -8 -11 -41 18 -14 13 -28 18 -42 13 -24 -7 -61 2 -61
15 0 5 12 11 28 13 l27 4 -27 2 c-18 0 -28 7 -28 16 0 8 -4 15 -10 15 -5 0
-10 -4 -10 -10 0 -5 -4 -10 -10 -10 -5 0 -10 11 -10 24 0 16 -7 27 -20 31 -22
7 -28 45 -7 45 9 0 9 2 -1 9 -8 4 -11 19 -8 34 5 29 -2 34 -24 15 -8 -7 -6 -3
4 9 10 13 23 20 28 17 4 -3 7 -2 6 3 -7 21 210 182 225 167 10 -11 125 65 208
138 99 88 131 119 125 126 -4 4 -26 -4 -49 -17 -23 -13 -96 -54 -162 -91 -66
-36 -156 -87 -200 -112 -44 -25 -107 -61 -141 -79 -103 -57 -260 -150 -390
-231 -68 -43 -173 -105 -232 -139 -164 -95 -359 -230 -445 -309 -112 -104
-226 -260 -302 -415 -73 -150 -95 -214 -131 -380 -23 -109 -26 -152 -34 -460
-9 -342 -6 -494 11 -550 6 -19 5 -43 -1 -65 -19 -66 -39 -209 -51 -372 -33
-448 79 -876 344 -1310 122 -201 267 -370 412 -484 100 -78 285 -195 380 -240
38 -19 93 -54 120 -79 47 -43 49 -46 31 -58 -49 -31 -96 -81 -96 -102 0 -37
32 -68 69 -67 35 1 103 37 155 83 19 16 39 29 46 29 16 0 170 -122 170 -135
-1 -5 -24 -24 -53 -41 -29 -17 -113 -68 -187 -114 -74 -46 -164 -99 -200 -118
-138 -74 -218 -131 -263 -190 -40 -52 -39 -123 3 -162 37 -35 83 -54 112 -46
13 3 91 42 173 87 83 45 232 125 332 179 99 54 229 129 287 167 102 68 106 69
122 52 10 -11 47 -35 83 -56 95 -52 152 -93 146 -103 -3 -5 -40 -27 -83 -48
-216 -111 -258 -134 -316 -176 -72 -52 -123 -105 -142 -152 -20 -48 -17 -113
6 -151 30 -49 63 -66 144 -71 67 -4 78 -2 150 32 74 34 144 74 336 191 47 29
108 65 135 80 28 16 69 42 93 58 38 25 45 27 60 15 20 -17 191 -120 274 -167
101 -55 254 -111 337 -123 132 -20 197 4 531 192 91 51 199 112 240 135 41 23
120 69 175 102 55 33 132 77 170 98 93 50 201 112 250 143 47 30 219 127 395
222 69 37 166 91 215 120 50 29 147 85 216 125 198 114 276 171 401 293 88 86
139 147 208 248 108 158 159 262 199 404 65 226 65 228 67 883 2 328 -1 597
-5 597 -4 0 -25 -53 -46 -117 -51 -158 -134 -331 -235 -488 -88 -139 -224
-324 -303 -415 -77 -88 -330 -324 -387 -360 -28 -18 -49 -35 -46 -37 2 -2 23
7 46 22 129 82 -188 -214 -359 -335 -43 -30 -123 -89 -177 -131 -55 -41 -137
-102 -184 -134 -47 -32 -98 -69 -113 -82 -16 -13 -34 -23 -40 -23 -7 1 2 12
18 25 26 22 27 29 4 27 -8 -1 0 47 14 81 7 15 16 27 20 27 5 0 5 4 2 10 -4 6
7 10 27 10 36 1 77 28 75 51 0 8 9 35 21 62 21 43 31 52 55 48 5 -1 6 3 2 8
-3 6 38 31 91 56 53 25 94 48 91 51 -7 8 -245 -103 -372 -173 -39 -22 -142
-70 -230 -108 -88 -37 -182 -79 -208 -92 -26 -13 -53 -21 -59 -17 -7 4 -8 3
-4 -5 5 -7 -16 -22 -60 -41 -37 -17 -68 -29 -69 -28 -1 2 1 12 6 23 4 11 8 15
8 8 1 -7 8 -10 16 -7 12 5 12 8 0 20 -7 8 -23 14 -35 14 -17 0 -20 -4 -16 -22
l6 -23 -11 22 c-7 13 -16 23 -21 23 -4 0 -8 7 -8 15 0 8 -5 15 -12 15 -6 0 -9
2 -6 5 8 8 39 -6 33 -15 -3 -5 -1 -11 4 -14 14 -9 18 61 4 80 -7 10 -16 14
-20 11 -3 -4 2 -13 12 -21 17 -12 17 -13 -4 -19 -11 -3 -21 -1 -21 4 0 5 -7 9
-16 9 -8 0 -13 4 -10 9 4 5 0 12 -6 14 -9 4 -8 6 2 6 9 1 16 10 17 22 2 17 -1
18 -13 9 -11 -10 -14 -10 -14 -1 0 7 -5 9 -10 6 -7 -4 -8 3 -4 20 6 25 5 27
-15 20 -17 -5 -24 -2 -28 14 -3 11 -14 23 -24 26 -20 7 -26 25 -9 25 6 0 10 9
10 19 0 14 5 18 20 14 11 -3 20 0 20 6 0 5 -7 8 -15 5 -8 -4 -15 -1 -15 5 0 7
-10 16 -22 21 -13 5 -17 9 -10 9 6 1 12 9 12 20 0 10 10 25 23 34 12 8 18 19
14 23 -4 5 -12 2 -16 -5 -11 -18 -48 18 -53 51 -3 26 19 45 140 117 39 24 72
45 72 48 0 2 -3 2 -7 0 -31 -16 -157 -92 -253 -152 -63 -39 -164 -101 -225
-137 -60 -36 -148 -89 -195 -118 -47 -29 -175 -105 -285 -168 -110 -63 -217
-125 -237 -138 -20 -13 -115 -66 -210 -117 -95 -52 -190 -104 -210 -117 -21
-12 -38 -20 -38 -17 0 2 44 30 98 62 53 32 124 75 157 95 33 21 125 77 205
125 80 49 183 112 230 140 154 94 313 191 415 253 89 54 199 122 500 309 50
31 135 84 190 118 318 197 407 253 570 357 99 63 254 161 345 218 91 57 245
156 343 219 97 64 217 141 265 171 48 30 161 107 252 170 132 92 191 141 293
245 188 190 191 196 60 128 -110 -57 -372 -203 -453 -253 -25 -15 -117 -71
-205 -125 -88 -54 -187 -117 -220 -140 -106 -75 -331 -202 -341 -192 -2 2 24
22 59 45 34 23 107 73 162 111 99 69 133 92 308 205 118 77 331 203 481 286
122 68 349 218 377 250 23 27 27 508 5 624 -35 182 -109 398 -210 611 -52 110
-167 256 -268 341 -40 34 -102 86 -136 115 -140 119 -220 182 -285 226 -37 25
-66 47 -65 48 8 7 321 198 434 266 160 95 194 130 191 194 -1 30 -6 45 -15 45
-23 0 -174 -74 -258 -127 -43 -27 -142 -85 -219 -128 -77 -43 -214 -122 -305
-175 -91 -53 -199 -116 -240 -140 -78 -45 -490 -294 -595 -360 -33 -21 -143
-88 -245 -150 -102 -62 -203 -125 -226 -141 -43 -29 -274 -170 -534 -324 -243
-145 -535 -321 -645 -389 -253 -157 -411 -246 -437 -246 -10 0 -17 -4 -13 -9
3 -5 -20 -23 -50 -39 -30 -17 -52 -26 -49 -21 3 5 0 9 -5 9 -10 0 -15 -14 -12
-34 1 -5 -5 -6 -14 -3 -8 4 -15 2 -15 -3 0 -6 -5 -9 -12 -8 -7 2 -12 -2 -13
-9 0 -6 -4 -15 -9 -20 -5 -5 -6 -3 -2 5 4 7 1 12 -9 12 -9 0 -13 -5 -9 -11 5
-8 1 -8 -14 0 -17 9 -23 8 -31 -6 -6 -10 -11 -13 -11 -7 0 27 -138 19 -196
-11 -16 -8 -51 -15 -79 -15 -27 -1 -70 -5 -95 -10 -28 -5 -49 -5 -57 1 -7 6
-13 6 -17 0 -3 -5 -33 -12 -66 -16 -33 -4 -78 -16 -100 -26 -21 -10 -46 -19
-55 -19 -19 0 -45 -23 -45 -39 0 -6 -7 -11 -15 -11 -8 0 -22 -14 -30 -30 -16
-31 -35 -32 -35 -3 0 32 239 480 285 533 7 8 22 33 33 56 11 22 36 59 54 81
18 23 69 92 113 154 44 63 125 159 180 215 140 144 158 164 145 164 -6 0 -22
-11 -36 -25 -24 -24 -51 -35 -39 -15 10 16 -26 -1 -64 -29 -18 -14 -69 -48
-112 -76 -105 -67 -325 -236 -425 -326 -115 -104 -351 -353 -454 -479 -25 -30
-47 -57 -51 -60 -3 -3 -18 -23 -32 -45 -24 -35 -32 -39 -28 -12 0 4 -8 7 -18
7 -11 0 -22 4 -25 8 -3 5 -30 15 -61 22 -30 7 -55 17 -55 22 0 4 -11 8 -25 8
-14 0 -25 6 -25 13 -1 7 -7 4 -15 -7 -8 -10 -12 -22 -10 -26 3 -4 -6 -10 -20
-12 -14 -3 -25 -2 -25 2 0 12 248 249 330 316 82 66 299 215 425 291 45 26
121 76 170 111 99 70 450 293 505 322 19 10 123 75 230 144 107 69 245 155
305 193 61 37 156 97 212 133 104 66 136 86 468 290 105 64 287 177 405 250
118 73 271 167 340 210 182 112 320 202 320 209 0 12 -148 99 -176 104 -16 3
-61 -2 -101 -11z m-2428 -802 c-3 -5 -12 -10 -18 -10 -7 0 -6 4 3 10 19 12 23
12 15 0z m-14 -37 c12 -16 12 -17 -2 -5 -13 10 -19 9 -29 -3 -7 -8 -17 -15
-23 -15 -5 0 -2 9 8 20 22 25 29 25 46 3z m-71 -48 c-7 -9 -15 -13 -17 -11 -7
7 7 26 19 26 6 0 6 -6 -2 -15z m-30 -28 c0 -2 -17 -19 -37 -38 l-38 -34 34 38
c33 34 41 42 41 34z m634 -46 c3 -4 -5 -13 -17 -18 -19 -9 -23 -8 -24 8 -2 19
31 28 41 10z m-57 -17 c-3 -3 -12 -4 -19 -1 -8 3 -5 6 6 6 11 1 17 -2 13 -5z
m221 -30 c15 -11 22 -25 22 -50 0 -45 -50 -94 -156 -153 -44 -24 -113 -64
-154 -89 -208 -125 -440 -253 -453 -250 -18 3 -58 -22 -52 -33 4 -5 -6 -9 -22
-10 -22 0 -24 -2 -10 -8 17 -6 16 -8 -9 -19 -22 -11 -29 -11 -35 0 -8 11 -13
5 -6 -6 4 -8 -46 -56 -53 -51 -4 3 -17 -4 -28 -13 -37 -33 -93 -45 -140 -33
-23 7 -42 17 -42 23 0 6 10 27 22 47 13 20 23 39 23 43 0 7 90 68 100 68 2 0
51 27 109 60 58 33 108 60 112 60 3 0 25 14 49 30 24 17 47 30 50 30 4 0 21
10 38 22 17 12 70 43 117 68 146 79 182 101 290 173 99 66 172 106 195 107 6
0 21 -7 33 -16z m3267 -106 c70 -77 183 -245 234 -347 195 -388 200 -845 12
-1216 -81 -159 -122 -217 -241 -338 l-105 -108 -3 38 c-3 49 -39 126 -55 120
-7 -3 -13 3 -14 12 -3 37 -9 56 -17 63 -6 4 -5 12 3 21 14 18 1 30 -23 21 -9
-3 -16 -1 -16 5 0 7 7 14 16 18 10 4 14 13 10 29 -3 12 -3 24 2 26 4 2 29 35
56 73 54 78 50 74 -49 -38 -68 -78 -257 -237 -373 -316 -146 -98 -406 -205
-962 -396 -155 -53 -176 -62 -297 -129 -223 -122 -238 -131 -292 -180 -34 -31
-34 -31 -16 -3 13 21 14 27 4 27 -11 0 -11 2 1 10 8 5 11 10 5 10 -5 0 -2 5 8
11 21 12 23 59 2 59 -21 0 -19 20 3 21 12 0 10 3 -8 10 -20 8 -22 12 -10 19
13 8 12 10 -2 10 -13 0 -18 8 -18 30 0 17 5 30 13 30 6 0 3 7 -8 16 -11 8 -19
22 -17 31 3 11 -1 14 -13 9 -14 -5 -16 -2 -12 14 3 11 1 20 -4 20 -5 0 -9 -8
-9 -17 0 -13 -7 -9 -29 15 -17 17 -39 32 -50 32 -12 0 -21 5 -21 10 0 6 -11 8
-27 4 l-28 -7 25 21 25 20 -43 -2 c-35 -2 -47 3 -69 26 -29 30 -70 37 -79 13
-9 -23 -66 38 -58 62 4 11 3 14 -3 7 -4 -6 -18 -13 -31 -17 -19 -4 -22 -2 -17
14 7 21 -5 25 -22 8 -7 -7 -12 -6 -16 5 -4 9 -1 16 6 16 9 0 9 2 -1 8 -22 15
-2 41 97 128 115 102 323 237 444 288 140 60 298 96 472 107 334 21 407 37
605 131 111 53 241 178 288 279 64 135 76 240 43 372 -22 83 -51 147 -87 190
-35 42 -31 70 11 90 20 9 46 17 60 17 13 0 25 5 27 10 2 6 14 12 28 15 14 3
30 11 35 18 6 8 24 21 42 30 17 9 39 24 48 33 10 11 34 18 63 18 26 1 52 4 57
8 6 3 21 -4 34 -18 13 -13 27 -24 32 -24 5 0 9 -6 9 -14 0 -7 7 -19 15 -26 62
-51 -104 161 -192 246 -24 22 -43 43 -43 46 0 3 33 17 73 33 39 15 77 31 82
36 6 4 73 35 150 69 77 34 144 66 150 71 18 18 34 8 90 -53z m-1371 -456 c3
-5 -66 -55 -152 -113 -354 -235 -659 -463 -711 -532 -23 -30 -67 -76 -99 -103
-146 -123 -417 -437 -550 -636 -175 -263 -277 -521 -317 -801 -36 -253 5 -523
119 -781 14 -32 23 -62 20 -67 -3 -5 -1 -9 5 -9 6 0 15 -9 21 -21 10 -19 10
-20 -9 -10 -23 13 -34 14 -27 3 2 -4 -12 -6 -32 -4 -28 3 -52 -5 -99 -31 -34
-20 -70 -38 -81 -41 -10 -4 -24 -18 -30 -31 -6 -14 -16 -25 -22 -25 -5 0 -10
-7 -10 -15 0 -8 -4 -15 -9 -15 -8 0 -19 -31 -26 -75 -5 -26 -18 -55 -25 -55
-15 0 -87 142 -128 250 -124 326 -126 677 -6 1008 48 133 101 246 138 297 12
17 42 62 66 100 107 172 359 448 580 635 184 156 408 375 396 387 -19 20 -253
-115 -409 -235 -56 -43 -156 -115 -222 -159 -66 -45 -151 -108 -190 -140 -38
-32 -124 -104 -190 -159 -314 -264 -592 -609 -768 -953 -43 -85 -75 -143 -72
-129 6 22 3 26 -26 32 -17 3 -42 6 -56 6 -18 0 -27 8 -34 30 -6 16 -19 32 -30
35 -17 6 -23 17 -21 36 1 4 -8 5 -19 2 -13 -4 -27 2 -40 16 -11 11 -24 21 -30
21 -5 0 -14 12 -20 28 -11 25 -12 26 -20 7 -7 -15 -8 -12 -4 14 4 26 2 32 -10
27 -10 -4 -15 1 -15 14 0 11 -5 20 -11 20 -5 0 -7 5 -4 10 4 6 11 7 17 4 7 -4
8 -2 4 4 -12 20 98 154 272 330 179 182 270 263 399 359 96 71 387 257 553
353 164 96 511 303 605 363 44 28 145 89 225 137 202 121 519 312 620 375 344
212 463 270 484 237z m-3624 -1045 c0 -2 -9 -12 -20 -22 -24 -21 -27 -14 -4 9
15 15 24 20 24 13z m300 -41 c0 -3 -4 -8 -10 -11 -5 -3 -10 -1 -10 4 0 6 5 11
10 11 6 0 10 -2 10 -4z m4487 -258 c-3 -8 -6 -5 -6 6 -1 11 2 17 5 13 3 -3 4
-12 1 -19z m28 -28 c3 -5 -1 -10 -10 -10 -9 0 -13 5 -10 10 3 6 8 10 10 10 2
0 7 -4 10 -10z m35 -46 c0 -8 -5 -12 -10 -9 -6 4 -8 11 -5 16 9 14 15 11 15
-7z m-2295 -334 c-3 -5 -12 -7 -20 -3 -21 7 -19 13 6 13 11 0 18 -4 14 -10z
m1355 -610 c0 -11 7 -20 15 -20 27 0 16 -16 -42 -62 -73 -57 -109 -79 -260
-162 -68 -36 -183 -104 -255 -149 -230 -144 -282 -173 -315 -175 -18 -1 -33 2
-33 8 0 5 -10 10 -22 9 l-23 0 23 -11 c28 -14 28 -20 -2 -34 -20 -9 -23 -8
-19 6 4 14 -1 17 -27 16 -17 -1 -34 -7 -38 -13 -5 -7 -18 -14 -31 -16 -13 -2
-29 -11 -36 -20 -7 -9 -15 -14 -19 -10 -3 4 -24 -4 -47 -16 -22 -13 -42 -21
-44 -19 -2 2 46 34 108 72 375 230 532 325 612 372 50 29 121 71 158 95 74 45
274 149 288 149 5 0 9 -9 9 -20z m-840 -574 c0 -2 -12 -11 -27 -20 l-28 -17
24 20 c23 21 31 25 31 17z m130 -186 c0 -5 -5 -10 -11 -10 -5 0 -7 5 -4 10 3
6 8 10 11 10 2 0 4 -4 4 -10z m51 -163 c-1 -12 -15 -9 -19 4 -3 6 1 10 8 8 6
-3 11 -8 11 -12z m-34 -39 c-3 -8 -6 -5 -6 6 -1 11 2 17 5 13 3 -3 4 -12 1
-19z m943 -82 c0 -3 -4 -8 -10 -11 -5 -3 -10 -1 -10 4 0 6 5 11 10 11 6 0 10
-2 10 -4z m-730 -225 c0 -8 -110 -62 -126 -60 -7 0 99 58 124 68 1 1 2 -3 2
-8z"/>
<path d="M7186 7057 c3 -10 9 -15 12 -12 3 3 0 11 -7 18 -10 9 -11 8 -5 -6z"/>
<path d="M7340 5663 c0 -13 5 -23 10 -23 13 0 13 11 0 30 -8 12 -10 11 -10 -7z"/>
<path d="M7360 5670 c0 -5 5 -10 11 -10 5 0 7 5 4 10 -3 6 -8 10 -11 10 -2 0
-4 -4 -4 -10z"/>
<path d="M4910 5446 c0 -8 6 -16 14 -19 10 -4 12 0 9 14 -6 22 -23 26 -23 5z"/>
<path d="M3115 4780 c3 -5 8 -10 11 -10 2 0 4 5 4 10 0 6 -5 10 -11 10 -5 0
-7 -4 -4 -10z"/>
<path d="M6559 8355 c-51 -35 -122 -90 -155 -122 -52 -49 -62 -65 -68 -103 -6
-39 -4 -46 16 -62 17 -13 33 -17 58 -13 65 11 214 88 373 193 l67 45 -95 63
c-52 35 -96 64 -98 64 -2 0 -46 -29 -98 -65z"/>
<path d="M7240 4190 c-8 -5 -11 -12 -7 -16 4 -4 13 -2 19 4 15 15 7 24 -12 12z"/>
<path d="M5685 4060 c3 -5 13 -10 21 -10 8 0 14 5 14 10 0 6 -9 10 -21 10 -11
0 -17 -4 -14 -10z"/>
<path d="M5750 3800 c0 -5 5 -10 10 -10 6 0 10 5 10 10 0 6 -4 10 -10 10 -5 0
-10 -4 -10 -10z"/>
<path d="M5938 3578 c9 -9 15 -9 24 0 9 9 7 12 -12 12 -19 0 -21 -3 -12 -12z"/>
<path d="M1960 3457 c0 -43 45 -113 86 -132 41 -19 97 -19 134 0 28 15 80 73
80 91 0 4 -8 -3 -17 -16 -39 -57 -100 -75 -137 -42 -29 26 -60 42 -85 42 -12
0 -21 7 -21 16 0 8 -5 12 -11 9 -6 -4 -10 -1 -8 6 4 30 -2 59 -11 59 -5 0 -10
-15 -10 -33z"/>
<path d="M2830 2934 c-407 -226 -452 -258 -452 -310 0 -36 43 -74 83 -74 18 0
77 27 152 69 67 39 172 96 232 129 93 49 114 65 133 99 27 50 19 84 -27 108
-41 21 -47 20 -121 -21z"/>
<path d="M7478 2903 c-6 -16 -13 -52 -16 -80 -4 -43 0 -63 23 -108 14 -30 41
-66 58 -79 37 -28 115 -56 155 -56 34 0 119 40 151 70 l23 23 -33 14 c-18 8
-40 20 -49 27 -8 7 -40 22 -70 32 -30 10 -57 21 -60 24 -3 3 -16 7 -30 8 -14
2 -34 12 -45 21 -11 10 -37 26 -58 35 -45 20 -51 33 -38 69 14 36 4 35 -11 0z"/>
<path d="M6789 2431 c-59 -60 -27 -151 53 -151 29 0 42 7 67 35 40 45 41 87 5
120 -38 35 -87 34 -125 -4z"/>
<path d="M5240 1004 c0 -13 7 -15 31 -10 17 3 55 7 83 7 l51 2 -50 7 c-85 14
-115 12 -115 -6z"/>
</g>
</svg>
